<svg width="29" height="86" viewBox="0 0 29 86" fill="none" xmlns="http://www.w3.org/2000/svg">
<path d="M28.8106 28.0668C28.6061 27.7011 27.5251 25.4286 27.5251 25.4286L25.7136 21.0927C25.7136 21.0927 24.4281 19.2643 24.4281 18.9247C24.4281 18.5851 22.0907 17.2269 22.0907 17.2269C22.0907 17.2269 20.1916 16.7045 20.0455 16.6522C19.8994 16.6 17.6497 15.9125 17.6497 15.9125C17.6497 15.9125 16.7638 14.8364 16.6376 15.1174L16.6375 15.1181C16.6329 15.111 16.6282 15.1049 16.6236 15.0976C16.4426 14.7852 16.328 14.4436 16.2859 14.0914C16.2811 14.0601 16.277 14.0271 16.2727 13.9945C16.8561 13.6291 17.3344 13.1379 17.666 12.5633C17.9976 11.9886 18.1725 11.348 18.1756 10.6968C18.1752 10.5254 18.1627 10.3542 18.1382 10.1843C18.1543 10.175 18.1711 10.1668 18.1885 10.1598C18.2248 10.1452 18.2156 10.1334 18.1889 10.121C18.1981 10.1165 18.2072 10.1118 18.2164 10.1082C18.2648 10.0888 18.2325 10.0741 18.1857 10.0566L18.1885 10.0553C18.2544 10.0289 18.171 10.0114 18.1041 9.98338C18.1005 9.9653 18.0971 9.94717 18.0933 9.92917C18.1081 9.89476 18.1171 9.85847 18.1201 9.82154C18.126 9.82427 18.1315 9.82722 18.1377 9.82975C18.154 9.76244 18.1536 9.69259 18.1365 9.62544C18.1323 9.63908 18.1273 9.65248 18.1213 9.66557C18.1255 9.60469 18.1119 9.54389 18.082 9.4895C18.0521 9.43512 18.0069 9.38914 17.9512 9.35636C17.9479 9.35365 17.9442 9.35075 17.9408 9.34801L18.0647 8.1762C19.8918 8.09644 20.2123 5.22503 19.7956 5.0655C19.3789 4.90598 19.7956 4.56035 19.7956 3.86908C19.7956 3.17781 18.4173 2.40678 18.4173 2.40678C18.4173 2.40678 17.8403 2.67266 16.9428 1.3433C16.0453 0.0139436 12.7438 -0.198754 12.5194 0.146878C12.2951 0.492509 10.8206 0.944497 8.89738 1.44965C6.97417 1.9548 7.32676 4.0552 7.64729 4.50718C7.91135 4.88084 8.06597 5.3114 8.09604 5.75678C8.09604 6.02264 8.70506 7.1393 8.70506 7.1393C8.51298 7.52624 9.00181 9.64598 9.14659 10.2484C9.14431 10.267 9.1419 10.2854 9.1399 10.304C9.13867 10.3058 9.13704 10.3074 9.13585 10.3092C9.12895 10.319 9.12271 10.3291 9.11715 10.3395C9.08609 10.402 9.07581 10.4715 9.08762 10.5394C9.07705 10.6135 9.08825 10.6889 9.12005 10.7577C9.13105 11.3253 9.27321 11.8842 9.53701 12.3969C9.80081 12.9096 10.1802 13.3643 10.6496 13.7306C10.6519 13.7669 10.6542 13.8033 10.6563 13.8407C10.6832 14.3328 10.6984 14.9147 10.6703 15.4716C10.6689 15.5001 10.6666 15.528 10.6649 15.5564C10.5589 15.5762 10.4594 15.6187 10.3745 15.6806C10.2895 15.7425 10.2216 15.8219 10.176 15.9125C9.99484 16.2343 8.94302 16.7306 8.94302 16.7306C8.94302 16.7306 7.10234 16.809 6.92705 17.1224C6.75175 17.4359 4.09298 18.4807 4.09298 18.4807C4.09298 18.4807 2.69057 19.2382 2.89508 20.1001C3.00194 20.5505 2.70194 21.2502 2.39112 21.816C1.74097 21.5883 1.06395 21.4323 0.374161 21.3515L1.86365 22.6678C1.83244 22.7128 1.81405 22.7382 1.81405 22.7382L0.966754 25.507C0.966754 25.507 0.674585 26.4734 0.382416 26.7085C0.090246 26.9436 0.64537 29.0854 0.64537 29.0854C0.64537 29.0854 0.323973 30.6004 0.0610217 30.9922C-0.20193 31.384 0.470064 32.3505 0.470064 32.3505L1.81405 35.1715L5.37854 36.0073C5.37854 36.0073 5.61606 36.0537 5.9999 36.1297C5.98784 36.1971 5.97549 36.2642 5.96287 36.3312C5.79108 37.2297 5.56552 38.0562 5.29089 38.2797C4.61889 38.8283 4.64811 41.2836 4.64811 41.2836L4.67733 44.7576C4.67733 44.7576 4.91106 49.0413 4.79419 49.198C4.72042 49.2969 4.86846 49.4582 5.25905 49.6032C5.24787 49.6677 5.23692 49.7331 5.2266 49.7998C5.11675 50.5103 5.06767 51.321 5.3201 51.6794C5.42972 51.8732 5.4897 52.0877 5.4954 52.3063C5.4954 52.6459 6.05053 53.3511 6.05053 53.3511C6.05053 53.3511 5.61227 56.2504 6.3427 57.243C7.07313 58.2355 7.68669 60.0379 7.33608 60.4558C7.33608 60.4558 6.72253 61.6834 7.0147 62.2319C7.30686 62.7805 7.0147 63.0939 6.63487 63.2245C6.25504 63.3551 6.28778 64.426 6.28778 64.426L6.98548 69.5195C6.98548 69.5195 7.3653 70.5643 7.04391 70.93C6.72253 71.2957 6.72252 73.1241 7.21921 73.7509C7.7159 74.3778 6.518 75.5271 6.518 75.5271C6.518 75.5271 5.78758 76.4936 6.95626 76.807C6.95626 76.807 7.19 76.8592 6.75174 77.2772C6.31347 77.6951 6.22583 78.2175 6.518 78.4003C6.57858 78.4339 6.64195 78.463 6.70751 78.4873C6.69667 78.5492 6.68492 78.6133 6.6711 78.6814C6.5589 79.2268 6.34738 79.9372 5.96287 80.281C5.21767 80.9863 4.57459 81.7779 4.04974 82.636C3.64888 83.3381 3.47357 83.9953 3.91768 84.3035C4.96949 85.0349 6.31348 85.2699 7.10234 84.9826C7.8912 84.6953 9.00145 83.8072 9.00145 83.8072L9.2644 82.7885C9.2644 82.7885 9.08911 82.1616 9.96561 81.9266C10.8421 81.6915 11.6602 80.8556 11.6602 80.8556V79.5016C11.8724 79.3896 12.0773 79.2661 12.2738 79.1317C12.2738 79.1317 12.6828 77.7996 12.2738 77.3555C11.8647 76.9115 11.7186 76.7548 12.2446 76.4674C12.7705 76.1801 12.8417 75.5532 12.4561 75.0047C12.0692 74.4562 11.4557 73.6465 11.9816 72.4972C12.5075 71.3479 12.7003 67.8217 12.7003 67.8217C12.7003 67.8217 12.4549 65.4186 12.7003 64.8701C12.9458 64.3216 12.4199 63.2245 12.4199 63.2245C12.4199 63.2245 12.5952 61.8663 12.9165 61.2394C13.2379 60.6125 13.5009 57.2952 13.5009 57.2952C13.5009 57.2952 14.0852 55.8848 14.0852 54.9706C14.0852 54.0564 13.1795 51.8623 14.5235 51.2876C14.5235 51.2876 15.1078 51.7578 14.8741 53.6384C14.8741 53.6384 15.5461 55.8325 15.5461 56.5116C15.5461 57.1908 16.0428 59.6461 16.0428 59.6461C16.0428 59.6461 16.1012 60.4297 16.3057 60.717C16.5102 61.0043 16.3057 61.7879 16.3057 61.7879C16.3057 61.7879 17.0654 62.4409 16.8609 62.8589C16.6563 63.2768 16.8959 64.2192 16.8959 64.2192L16.7148 70.068C16.7148 70.068 16.1889 72.5756 17.416 74.0905C17.416 74.0905 16.9777 76.3107 16.7148 76.4675C16.4518 76.6242 17.6789 77.9824 17.6789 77.9824C17.6789 77.9824 17.3388 78.8623 18.0295 78.9055V80.3594C18.2693 80.7508 18.5983 81.0895 18.9937 81.3519C19.6365 81.7699 19.3735 83.2065 19.3735 83.2065C19.3735 83.2065 20.1916 85.0349 22.3537 84.6431C24.5157 84.2513 24.8079 84.0684 24.691 83.4154C24.649 83.1772 24.5555 82.752 24.4211 82.2693C24.1885 81.4303 23.8321 80.4179 23.4055 79.9185C22.7335 79.1317 22.1784 77.4862 22.1784 77.4862C22.1784 77.4862 21.9154 76.9376 22.1784 76.7548C22.4413 76.572 22.3245 76.2324 22.3245 76.2324C22.3245 76.2324 22.5804 75.5533 22.3502 75.1353C22.1199 74.7174 22.7919 73.8555 22.7919 73.8555L22.5874 69.8329L22.7919 63.982C22.7919 63.982 21.8862 63.0156 22.266 62.4409C22.6458 61.8663 21.8278 61.0566 21.8278 61.0566C21.8278 61.0566 21.7401 61.0304 21.9739 60.3774C22.1137 59.9926 22.0929 59.5734 21.9154 59.202C21.9154 59.202 21.4187 57.5826 22.2952 56.3549C22.2952 56.3549 22.6751 54.7355 22.7919 53.8997C22.8726 53.3187 23.3774 51.1487 23.6778 49.8792C23.6948 49.8075 23.7111 49.7388 23.7266 49.6732C24.1593 49.695 24.4865 49.7204 24.4865 49.7204C24.4865 49.7204 23.8145 45.4106 24.4865 44.5225C25.1585 43.6344 23.9606 36.8432 23.9606 36.8432C23.9606 36.8432 23.6743 35.6563 23.4978 34.4453C23.4877 34.3763 23.4786 34.3074 23.4693 34.2385C24.0117 34.1984 24.5562 34.1872 25.1001 34.205C26.5025 34.2834 27.8757 33.7871 27.9049 33.2908C27.9341 32.7945 28.6938 30.8355 28.8106 30.3915C28.9275 29.9474 29.0152 28.4324 28.8106 28.0668Z" fill="url(#paint0_linear_1_105)"/>
<path d="M11.7625 78.4556V80.8742C11.7625 80.8742 10.9742 81.7064 10.1296 81.9404C9.28502 82.1745 9.45394 82.7986 9.45394 82.7986L9.20056 83.8129C9.20056 83.8129 8.13076 84.6971 7.37064 84.9832C6.61052 85.2693 5.3155 85.0352 4.302 84.307C3.87408 84.0001 4.04299 83.3458 4.42925 82.6468C4.93249 81.7955 5.55204 81.0075 6.27269 80.302C6.64318 79.9598 6.847 79.2524 6.95512 78.7094C7.03507 78.3027 7.06096 77.9875 7.06096 77.9875L11.7625 78.4556Z" fill="#4C495A"/>
<path opacity="0.1" d="M11.7625 80.2604V80.8742C11.7625 80.8742 10.9742 81.7064 10.1296 81.9404C9.28502 82.1745 9.45394 82.7986 9.45394 82.7986L9.20056 83.8129C9.20056 83.8129 8.13076 84.6971 7.37064 84.9832C6.61052 85.2693 5.3155 85.0352 4.302 84.307C3.87408 84.0001 4.04299 83.3458 4.42925 82.6468C4.41123 83.3812 4.6466 84.2061 5.79409 84.177C7.03258 84.1407 8.22612 83.7398 9.20056 83.0327C9.20056 83.0327 9.17241 81.3163 10.4674 80.9262C10.9408 80.7819 11.3802 80.556 11.7625 80.2604Z" fill="black"/>
<path d="M22.0663 84.6451C19.983 85.0352 19.1947 83.2147 19.1947 83.2147C19.1947 83.2147 19.4481 81.7844 18.8287 81.3683C18.4457 81.1044 18.1289 80.7673 17.8997 80.38V77.9875L20.4334 76.3231L21.805 77.4444L21.8974 77.5194C21.8974 77.5194 22.4323 79.1577 23.0798 79.9411C23.4908 80.4383 23.8343 81.4463 24.0584 82.2816C24.1879 82.7622 24.278 83.1856 24.3185 83.4228C24.4311 84.0729 24.1496 84.255 22.0663 84.6451Z" fill="#4C495A"/>
<path opacity="0.1" d="M22.0663 84.6451C19.983 85.0352 19.1947 83.2147 19.1947 83.2147C19.1947 83.2147 19.4481 81.7844 18.8287 81.3683C18.4457 81.1044 18.1289 80.7674 17.8997 80.3801V79.4532C18.3017 79.8454 19.0596 80.6047 19.2229 80.9262C19.4481 81.3683 19.4763 82.9807 20.5179 83.2668C21.5595 83.5528 23.5865 83.8129 23.7555 83.0847C23.8257 82.808 23.9272 82.5388 24.0584 82.2816C24.1879 82.7622 24.278 83.1856 24.3185 83.4228C24.4311 84.0729 24.1496 84.255 22.0663 84.6451Z" fill="black"/>
<path opacity="0.1" d="M7.06097 77.9875L11.7625 78.4556V79.7341C11.2321 80.0243 10.4719 80.3322 10.0451 80.016C9.41453 79.5499 7.53957 78.958 6.95512 78.7094C7.03507 78.3027 7.06097 77.9875 7.06097 77.9875Z" fill="black"/>
<path opacity="0.1" d="M21.8974 77.7274C21.2499 77.5194 20.0956 78.4296 18.5754 79.0017C18.364 79.0937 18.1333 79.1413 17.8997 79.1411V77.9875L20.4334 76.3231L21.805 77.4444C21.8262 77.5412 21.8571 77.636 21.8974 77.7274Z" fill="black"/>
<path d="M23.5584 49.0945C23.5584 49.0945 23.4694 49.4773 23.3422 50.0328C23.0528 51.2967 22.5663 53.4573 22.4886 54.0357C22.376 54.8679 22.01 56.4803 22.01 56.4803C21.1654 57.7026 21.644 59.315 21.644 59.315C21.8152 59.686 21.8352 60.1017 21.7003 60.4852C21.4751 61.1354 21.5596 61.1614 21.5596 61.1614C21.5596 61.1614 22.3478 61.9676 21.9818 62.5397C21.6159 63.1119 22.4886 64.0741 22.4886 64.0741L22.2915 69.8995L22.4886 73.9045C22.4886 73.9045 21.8411 74.7627 22.0629 75.1788C22.2848 75.5949 22.0382 76.2711 22.0382 76.2711C22.0382 76.2711 22.1508 76.6091 21.8974 76.7912C21.644 76.9732 21.8974 77.5194 21.8974 77.5194C21.2499 77.3113 20.0956 78.2215 18.5754 78.7937C17.0551 79.3658 17.5619 78.0135 17.5619 78.0135C17.5619 78.0135 16.3795 76.6612 16.6329 76.5051C16.8862 76.3491 17.3085 74.1386 17.3085 74.1386C16.1261 72.6302 16.6329 70.1336 16.6329 70.1336L16.8074 64.3102C16.8074 64.3102 16.5765 63.3719 16.7736 62.9558C16.9707 62.5397 16.2387 61.8896 16.2387 61.8896C16.2387 61.8896 16.4358 61.1094 16.2387 60.8233C16.0416 60.5373 15.9853 59.7571 15.9853 59.7571C15.9853 59.7571 15.5067 57.3125 15.5067 56.6363C15.5067 55.9601 14.8592 53.7756 14.8592 53.7756C15.0845 51.9032 14.5214 51.435 14.5214 51.435C13.2264 52.0072 14.0991 54.1917 14.0991 55.1019C14.0991 56.0122 13.5361 57.4165 13.5361 57.4165C13.5361 57.4165 13.2827 60.7193 12.973 61.3435C12.6633 61.9676 12.4944 63.3199 12.4944 63.3199C12.4944 63.3199 13.0012 64.4122 12.7647 64.9583C12.5282 65.5045 12.7647 67.897 12.7647 67.897C12.7647 67.897 12.5789 71.4079 12.0721 72.5522C11.5654 73.6965 12.1566 74.5026 12.5293 75.0488C12.9009 75.5949 12.8322 76.2191 12.3255 76.5051C11.8188 76.7912 11.9595 76.9472 12.3536 77.3893C12.7478 77.8315 12.3536 79.1578 12.3536 79.1578C12.3536 79.1578 10.7489 80.3281 10.0451 79.8079C9.34132 79.2878 7.08911 78.6116 6.80758 78.4296C6.52605 78.2476 6.61051 77.7274 7.0328 77.3113C7.45509 76.8952 7.22987 76.8432 7.22987 76.8432C6.10376 76.5311 6.80758 75.5689 6.80758 75.5689C6.80758 75.5689 7.96184 74.4246 7.48324 73.8005C7.00465 73.1763 7.00465 71.3559 7.31433 70.9918C7.62401 70.6277 7.25802 69.5874 7.25802 69.5874L6.58574 64.5162C6.58574 64.5162 6.5542 63.45 6.92019 63.3199C7.28617 63.1899 7.5677 62.8778 7.28617 62.3317C7.00465 61.7856 7.59585 60.5633 7.59585 60.5633C7.93368 60.1472 7.34248 58.3527 6.63866 57.3645C5.93485 56.3762 6.35714 53.4895 6.35714 53.4895C6.35714 53.4895 5.82224 52.7874 5.82224 52.4493C5.81697 52.2322 5.75926 52.019 5.65332 51.8251C5.41009 51.4683 5.45738 50.6611 5.56322 49.9537C5.6657 49.2692 5.82224 48.6784 5.82224 48.6784L23.5584 49.0945Z" fill="#5F5D7E"/>
<path d="M18.0405 19.6294L12.4944 20.8257C12.4944 20.8257 9.76361 18.6931 10.4393 17.5489C10.6713 17.1556 10.7737 16.4847 10.8086 15.7752C10.8357 15.2208 10.821 14.6413 10.7951 14.1514C10.7557 13.443 10.6926 12.9197 10.6926 12.9197C10.6926 12.9197 16.3795 9.95502 16.1824 12.9197C16.1423 13.4134 16.1548 13.9096 16.2196 14.401C16.2598 14.7507 16.3701 15.0905 16.545 15.4028C16.8491 15.9032 17.2241 15.9105 17.2241 15.9105L18.0405 19.6294Z" fill="#FDC2CC"/>
<path opacity="0.1" d="M16.2196 14.4011C15.4181 14.9322 14.4453 15.1966 13.4601 15.1513C12.475 15.1059 11.5355 14.7535 10.7951 14.1514C10.7557 13.443 10.6926 12.9197 10.6926 12.9197C10.6926 12.9197 16.3795 9.95502 16.1824 12.9197C16.1423 13.4134 16.1548 13.9096 16.2196 14.4011Z" fill="black"/>
<path d="M13.6768 15.0522C16.0868 15.0522 18.0405 13.2475 18.0405 11.0213C18.0405 8.79503 16.0868 6.9903 13.6768 6.9903C11.2668 6.9903 9.31316 8.79503 9.31316 11.0213C9.31316 13.2475 11.2668 15.0522 13.6768 15.0522Z" fill="#FDC2CC"/>
<path opacity="0.1" d="M18.0405 19.6293L12.4944 20.8256C12.4944 20.8256 9.76361 18.6931 10.4393 17.5488C10.6713 17.1556 10.7737 16.4847 10.8086 15.7752C10.9311 16.3921 11.2896 16.9478 11.8187 17.3408C13.0856 18.121 12.8886 19.0832 12.8886 19.0832L15.1689 19.0052C15.0281 18.147 15.8727 17.6789 16.1543 17.5748C16.4358 17.4708 16.295 17.0027 16.295 17.0027L16.545 15.4028C16.8491 15.9032 17.2241 15.9104 17.2241 15.9104L18.0405 19.6293Z" fill="black"/>
<path opacity="0.1" d="M23.5584 49.0945C23.5584 49.0945 23.4694 49.4773 23.3422 50.0328C22.7296 50.0026 21.9199 49.9808 21.5596 50.0567C20.9402 50.1867 18.4628 50.2388 18.4628 50.2388L12.3255 50.4395V50.2648C11.6195 50.27 10.9145 50.3134 10.2141 50.3948C9.1724 50.5248 7.53956 50.3428 6.4979 50.1867C6.17729 50.1443 5.86343 50.0661 5.56323 49.9537C5.66571 49.2692 5.82224 48.6784 5.82224 48.6784L23.5584 49.0945Z" fill="black"/>
<path d="M23.0798 32.5805C22.9908 33.0663 23.0561 33.8714 23.1688 34.6662C23.3388 35.8718 23.6147 37.0536 23.6147 37.0536C23.6147 37.0536 24.7689 43.8152 24.1214 44.6994C23.4739 45.5836 24.1214 49.8747 24.1214 49.8747C24.1214 49.8747 22.1789 49.7186 21.5596 49.8487C20.9402 49.9787 18.4628 50.0307 18.4628 50.0307L12.3255 50.2315V50.0567C11.6195 50.062 10.9145 50.1054 10.214 50.1867C9.17239 50.3168 7.53955 50.1347 6.49789 49.9787C5.45624 49.8226 5.03395 49.5106 5.14657 49.3545C5.25918 49.1985 5.03396 44.9335 5.03396 44.9335L5.0058 41.4746C5.0058 41.4746 4.97765 39.03 5.62516 38.4839C5.88979 38.2613 6.10714 37.4384 6.27267 36.5438C6.51028 35.2487 6.63865 33.8028 6.63865 33.8028L2.35945 23.2182L2.27499 23.0102C2.27499 23.0102 3.51371 21.2417 3.31664 20.3835C3.11957 19.5253 4.4709 18.7711 4.4709 18.7711C4.4709 18.7711 7.03279 17.7309 7.2017 17.4188C7.37062 17.1067 9.14423 17.0287 9.14423 17.0287C9.14423 17.0287 10.1577 16.5346 10.3323 16.2142C10.3748 16.1247 10.4397 16.0458 10.5218 15.9841C10.6038 15.9225 10.7006 15.8797 10.8041 15.8595C10.9234 16.484 11.2839 17.0473 11.8187 17.4448C13.0856 18.225 12.8885 19.1872 12.8885 19.1872L15.1689 19.1092C15.0281 18.251 15.8727 17.7829 16.1542 17.6789C16.4358 17.5748 16.295 17.1067 16.295 17.1067L16.5585 15.4226C16.6801 15.1427 17.5337 16.2142 17.5337 16.2142C17.5337 16.2142 19.7015 16.8987 19.8422 16.9507C19.983 17.0027 21.8129 17.5228 21.8129 17.5228C21.8129 17.5228 24.0651 18.8752 24.0651 19.2132C24.0651 19.5513 25.3039 21.3718 25.3039 21.3718C25.3039 21.3718 25.2892 21.4446 25.2622 21.5777C24.9762 23.0112 23.2859 31.4622 23.0798 32.5805Z" fill="#ED1D46"/>
<path d="M14.071 28.3675C14.071 28.3675 9.20057 27.1712 8.72197 26.8851C8.24338 26.599 5.42811 28.2634 8.86273 30.526C8.86273 30.526 13.0626 31.3322 14.1861 30.526C15.3097 29.7198 14.071 28.3675 14.071 28.3675Z" fill="#FDC2CC"/>
<path opacity="0.1" d="M24.6001 21.2417L25.1913 21.2677L26.9367 25.5848C26.9367 25.5848 27.9784 27.8473 28.1755 28.2114C28.3725 28.5755 28.2881 30.0839 28.1755 30.526C28.0628 30.9681 27.3309 32.9186 27.3027 33.4127C27.2746 33.9068 25.9514 34.4009 24.6001 34.3229C23.2488 34.2449 20.0957 34.635 20.0957 34.635C20.0957 34.635 16.7282 34.3098 14.6622 35.2851C14.6622 35.2851 13.339 32.7625 13.4798 28.0554C13.4798 28.0554 15.8165 27.9253 16.4077 28.1334C16.9989 28.3414 19.8704 28.9396 20.2364 28.6275C20.6024 28.3154 22.2634 29.1997 22.2634 29.1997C22.3479 29.0282 22.3917 28.8419 22.3917 28.6535C22.3917 28.4651 22.3479 28.2789 22.2634 28.1074C21.9819 27.4832 21.5033 25.5328 22.1226 24.9086C22.742 24.2845 24.6001 21.2417 24.6001 21.2417Z" fill="black"/>
<path opacity="0.1" d="M23.1688 34.6662C21.7713 34.7536 20.2083 34.947 20.2083 34.947C20.2083 34.947 16.8412 34.6214 14.7748 35.5972C14.7748 35.5972 13.4516 33.0746 13.5924 28.3675C13.5924 28.3675 15.929 28.2374 16.5202 28.4455C17.1114 28.6535 19.983 29.2517 20.349 28.9396C20.715 28.6275 22.376 29.5117 22.376 29.5117C22.4605 29.3402 22.5042 29.154 22.5042 28.9656C22.5042 28.7772 22.4605 28.5909 22.376 28.4195C22.0945 27.7953 21.6159 25.8448 22.2352 25.2207C22.8546 24.5965 24.7127 21.5538 24.7127 21.5538L25.2622 21.5777C24.9762 23.0112 23.2859 31.4622 23.0798 32.5805C22.9909 33.0663 23.0562 33.8714 23.1688 34.6662Z" fill="black"/>
<path d="M24.7127 21.3457L25.3039 21.3717L27.0493 25.6888C27.0493 25.6888 28.091 27.9513 28.2881 28.3154C28.4851 28.6795 28.4007 30.1879 28.2881 30.63C28.1754 31.0721 27.4435 33.0226 27.4153 33.5167C27.3872 34.0108 26.064 34.5049 24.7127 34.4269C23.3613 34.3489 20.2083 34.739 20.2083 34.739C20.2083 34.739 16.8408 34.4138 14.7748 35.3891C14.7748 35.3891 13.4516 32.8665 13.5924 28.1594C13.5924 28.1594 15.929 28.0294 16.5202 28.2374C17.1114 28.4455 19.983 29.0436 20.349 28.7315C20.715 28.4194 22.376 29.3037 22.376 29.3037C22.4605 29.1322 22.5042 28.9459 22.5042 28.7575C22.5042 28.5691 22.4605 28.3829 22.376 28.2114C22.0945 27.5872 21.6159 25.6368 22.2352 25.0126C22.8546 24.3885 24.7127 21.3457 24.7127 21.3457Z" fill="#ED1D46"/>
<path d="M18.7648 30.8982L19.4672 31.3L23.3819 25.4598L22.6794 25.058L18.7648 30.8982Z" fill="#F9DC5C"/>
<path d="M25.3891 24.6689C26.081 23.6367 26.0065 22.4366 25.2228 21.9884C24.4391 21.5401 23.243 22.0135 22.5512 23.0456C21.8593 24.0777 21.9338 25.2778 22.7175 25.7261C23.5012 26.1743 24.6973 25.701 25.3891 24.6689Z" fill="#F9DC5C"/>
<path opacity="0.1" d="M24.9887 24.4398C25.4853 23.6989 25.4319 22.8375 24.8693 22.5157C24.3068 22.194 23.4482 22.5338 22.9516 23.2746C22.455 24.0155 22.5085 24.8769 23.071 25.1987C23.6335 25.5204 24.4921 25.1807 24.9887 24.4398Z" fill="black"/>
<path d="M16.764 33.8832L17.4664 34.285L19.9022 30.6511L19.1997 30.2493L16.764 33.8832Z" fill="#53526B"/>
<path d="M12.6352 34.1408L14.3525 33.6987C14.3525 33.6987 22.8264 33.9068 19.983 30.682C19.983 30.682 18.4909 29.3557 15.366 30.4219C12.241 31.4882 11.3683 31.6182 11.3683 31.6182L12.6352 34.1408Z" fill="#FDC2CC"/>
<path opacity="0.1" d="M11.3683 20.5396C11.5549 20.5396 11.7061 20.3998 11.7061 20.2275C11.7061 20.0551 11.5549 19.9154 11.3683 19.9154C11.1817 19.9154 11.0305 20.0551 11.0305 20.2275C11.0305 20.3998 11.1817 20.5396 11.3683 20.5396Z" fill="black"/>
<path opacity="0.1" d="M17.1678 20.3575C17.3543 20.3575 17.5056 20.2178 17.5056 20.0454C17.5056 19.8731 17.3543 19.7334 17.1678 19.7334C16.9812 19.7334 16.8299 19.8731 16.8299 20.0454C16.8299 20.2178 16.9812 20.3575 17.1678 20.3575Z" fill="black"/>
<path d="M11.3683 20.4356C11.5549 20.4356 11.7061 20.2958 11.7061 20.1235C11.7061 19.9511 11.5549 19.8114 11.3683 19.8114C11.1817 19.8114 11.0305 19.9511 11.0305 20.1235C11.0305 20.2958 11.1817 20.4356 11.3683 20.4356Z" fill="white"/>
<path opacity="0.1" d="M11.8469 24.8566C12.0335 24.8566 12.1847 24.7169 12.1847 24.5445C12.1847 24.3722 12.0335 24.2325 11.8469 24.2325C11.6603 24.2325 11.5091 24.3722 11.5091 24.5445C11.5091 24.7169 11.6603 24.8566 11.8469 24.8566Z" fill="black"/>
<path opacity="0.1" d="M17.3367 24.5445C17.5233 24.5445 17.6745 24.4048 17.6745 24.2325C17.6745 24.0601 17.5233 23.9204 17.3367 23.9204C17.1501 23.9204 16.9988 24.0601 16.9988 24.2325C16.9988 24.4048 17.1501 24.5445 17.3367 24.5445Z" fill="black"/>
<path d="M11.8469 24.7525C12.0335 24.7525 12.1847 24.6128 12.1847 24.4405C12.1847 24.2681 12.0335 24.1284 11.8469 24.1284C11.6603 24.1284 11.5091 24.2681 11.5091 24.4405C11.5091 24.6128 11.6603 24.7525 11.8469 24.7525Z" fill="white"/>
<path opacity="0.1" d="M17.1959 39.6039C17.3825 39.6039 17.5337 39.4642 17.5337 39.2918C17.5337 39.1195 17.3825 38.9798 17.1959 38.9798C17.0093 38.9798 16.8581 39.1195 16.8581 39.2918C16.8581 39.4642 17.0093 39.6039 17.1959 39.6039Z" fill="black"/>
<path opacity="0.1" d="M12.7497 39.6039C12.9363 39.6039 13.0876 39.4642 13.0876 39.2918C13.0876 39.1195 12.9363 38.9798 12.7497 38.9798C12.5632 38.9798 12.4119 39.1195 12.4119 39.2918C12.4119 39.4642 12.5632 39.6039 12.7497 39.6039Z" fill="black"/>
<path d="M17.1959 39.4999C17.3825 39.4999 17.5337 39.3602 17.5337 39.1879C17.5337 39.0155 17.3825 38.8758 17.1959 38.8758C17.0093 38.8758 16.8581 39.0155 16.8581 39.1879C16.8581 39.3602 17.0093 39.4999 17.1959 39.4999Z" fill="white"/>
<path opacity="0.1" d="M13.0876 44.8294C13.2742 44.8294 13.4254 44.6897 13.4254 44.5174C13.4254 44.345 13.2742 44.2053 13.0876 44.2053C12.901 44.2053 12.7498 44.345 12.7498 44.5174C12.7498 44.6897 12.901 44.8294 13.0876 44.8294Z" fill="black"/>
<path opacity="0.1" d="M17.3367 44.5173C17.5233 44.5173 17.6745 44.3776 17.6745 44.2053C17.6745 44.0329 17.5233 43.8932 17.3367 43.8932C17.1501 43.8932 16.9988 44.0329 16.9988 44.2053C16.9988 44.3776 17.1501 44.5173 17.3367 44.5173Z" fill="black"/>
<path d="M13.0876 44.7254C13.2742 44.7254 13.4254 44.5857 13.4254 44.4133C13.4254 44.241 13.2742 44.1013 13.0876 44.1013C12.901 44.1013 12.7498 44.241 12.7498 44.4133C12.7498 44.5857 12.901 44.7254 13.0876 44.7254Z" fill="white"/>
<path d="M12.7497 39.4999C12.9363 39.4999 13.0876 39.3602 13.0876 39.1879C13.0876 39.0155 12.9363 38.8758 12.7497 38.8758C12.5632 38.8758 12.4119 39.0155 12.4119 39.1879C12.4119 39.3602 12.5632 39.4999 12.7497 39.4999Z" fill="white"/>
<path d="M17.3367 44.4133C17.5233 44.4133 17.6745 44.2736 17.6745 44.1013C17.6745 43.9289 17.5233 43.7892 17.3367 43.7892C17.1501 43.7892 16.9988 43.9289 16.9988 44.1013C16.9988 44.2736 17.1501 44.4133 17.3367 44.4133Z" fill="white"/>
<path d="M17.1678 20.2535C17.3543 20.2535 17.5056 20.1138 17.5056 19.9414C17.5056 19.7691 17.3543 19.6293 17.1678 19.6293C16.9812 19.6293 16.8299 19.7691 16.8299 19.9414C16.8299 20.1138 16.9812 20.2535 17.1678 20.2535Z" fill="white"/>
<path d="M17.3367 24.4405C17.5233 24.4405 17.6745 24.3008 17.6745 24.1284C17.6745 23.9561 17.5233 23.8163 17.3367 23.8163C17.1501 23.8163 16.9988 23.9561 16.9988 24.1284C16.9988 24.3008 17.1501 24.4405 17.3367 24.4405Z" fill="white"/>
<path opacity="0.1" d="M17.8434 35.0771C17.8434 35.0771 17.8997 42.2028 18.0686 43.4771C18.0686 43.4771 18.13 35.413 17.8434 35.0771Z" fill="black"/>
<path opacity="0.1" d="M19.2792 38.3799C19.1631 38.3799 21.5877 46.7279 21.7003 47.3261C21.8129 47.9242 19.9548 38.3799 19.2792 38.3799Z" fill="black"/>
<path opacity="0.1" d="M21.1936 37.0275C21.1936 37.1055 22.5449 41.5526 23.2206 41.7867C23.8962 42.0207 21.1936 37.0275 21.1936 37.0275Z" fill="black"/>
<path opacity="0.1" d="M26.5144 28.3674C26.5144 28.3674 23.6429 28.4857 23.5584 28.8687C23.4739 29.2516 26.5144 28.3674 26.5144 28.3674Z" fill="black"/>
<path opacity="0.1" d="M21.447 62.2797C21.447 62.2797 19.3918 63.0859 19.7015 63.1379C20.0112 63.1899 21.447 62.2797 21.447 62.2797Z" fill="black"/>
<path opacity="0.1" d="M17.1959 61.0834C17.1158 60.917 18.5754 61.7595 18.5754 61.8636C18.5754 61.9676 17.3085 61.3174 17.1959 61.0834Z" fill="black"/>
<path opacity="0.1" d="M19.1103 63.814C19.1103 63.814 20.715 63.7392 20.8276 64.3097C20.9402 64.8803 19.1103 63.814 19.1103 63.814Z" fill="black"/>
<path opacity="0.1" d="M7.5677 63.8108C7.5677 63.8108 9.31317 63.4955 9.45393 63.8108C9.5947 64.1261 7.5677 63.8108 7.5677 63.8108Z" fill="black"/>
<path opacity="0.1" d="M8.2152 73.6184C8.2152 73.6184 8.32966 74.9447 7.90644 75.2568C7.48323 75.5689 8.2152 73.6184 8.2152 73.6184Z" fill="black"/>
<path opacity="0.1" d="M8.00204 76.4271C8.55306 76.4791 11.4528 76.011 11.4246 76.4271C11.3965 76.8432 8.00204 76.4271 8.00204 76.4271Z" fill="black"/>
<path opacity="0.1" d="M21.3062 74.8147C21.3062 74.8147 20.3172 74.6743 20.5583 75.2906L21.3062 74.8147Z" fill="black"/>
<path opacity="0.1" d="M2.92252 22.9061H2.38762L1.57119 25.6628C1.57119 25.6628 1.28967 26.625 1.00814 26.8591C0.726612 27.0932 1.26151 29.2257 1.26151 29.2257C1.26151 29.2257 0.951836 30.734 0.698463 31.1241C0.44509 31.5142 1.0926 32.4765 1.0926 32.4765L2.38762 35.2851L5.82224 36.1173C5.82224 36.1173 11.8751 37.3396 12.1566 37.5217C12.4381 37.7037 12.6915 37.4437 12.8885 35.7533C13.0856 34.0628 13.6205 30.7861 14.0428 30.63C14.0428 30.63 10.6645 30.9681 10.383 30.9161C10.1014 30.8641 8.75011 30.9421 8.75011 30.9421C8.75011 30.9421 6.97649 30.8381 6.69497 30.9941C6.41345 31.1501 7.06095 30.2388 7.06095 30.2388C7.17949 29.8214 7.17949 29.3829 7.06095 28.9656C6.86389 28.2634 6.75128 20.3055 2.92252 22.9061Z" fill="black"/>
<path opacity="0.1" d="M13.9302 30.9421C13.5079 31.0981 12.973 34.3749 12.7759 36.0653C12.5789 37.7557 12.3255 38.0158 12.044 37.8337C11.8154 37.686 7.78054 36.8517 6.27268 36.5438C6.51029 35.2487 6.63866 33.8027 6.63866 33.8027L2.35947 23.2182H2.80991C6.63867 20.6176 6.75128 28.5755 6.94835 29.2777C7.06688 29.695 7.06688 30.1336 6.94835 30.5509C6.94835 30.5509 6.30084 31.4622 6.58237 31.3061C6.86389 31.1501 8.63751 31.2541 8.63751 31.2541C8.63751 31.2541 9.98883 31.1761 10.2704 31.2281C10.5519 31.2801 13.9302 30.9421 13.9302 30.9421Z" fill="black"/>
<path d="M2.80993 23.0102H2.27503L1.4586 25.7668C1.4586 25.7668 1.17707 26.7291 0.895548 26.9631C0.614023 27.1972 1.14892 29.3297 1.14892 29.3297C1.14892 29.3297 0.839242 30.8381 0.585868 31.2282C0.332495 31.6183 0.980007 32.5805 0.980007 32.5805L2.27503 35.3892L5.70965 36.2214C5.70965 36.2214 11.7625 37.4437 12.044 37.6257C12.3255 37.8078 12.5789 37.5477 12.776 35.8573C12.973 34.1669 13.5079 30.8901 13.9302 30.7341C13.9302 30.7341 10.5519 31.0721 10.2704 31.0201C9.98885 30.9681 8.63752 31.0461 8.63752 31.0461C8.63752 31.0461 6.8639 30.9421 6.58238 31.0982C6.30086 31.2542 6.94836 30.3428 6.94836 30.3428C7.0669 29.9255 7.0669 29.487 6.94836 29.0697C6.75129 28.3675 6.63869 20.4095 2.80993 23.0102Z" fill="#ED1D46"/>
<path opacity="0.1" d="M4.63984 32.4244C4.63984 32.4244 3.09144 35.1291 2.80992 34.817C2.52839 34.5049 4.63984 32.4244 4.63984 32.4244Z" fill="black"/>
<path opacity="0.1" d="M3.03514 30.8843C3.03514 30.8843 1.59935 31.9823 2.27501 32.2684C2.95067 32.5545 3.03514 30.8843 3.03514 30.8843Z" fill="black"/>
<path opacity="0.1" d="M4.38646 29.5377C4.49907 29.5637 6.46975 29.9253 6.4979 30.0826C6.52606 30.2399 4.38646 29.5377 4.38646 29.5377Z" fill="black"/>
<path opacity="0.1" d="M18.0529 10.4865C17.9917 10.5064 17.9394 10.5447 17.9045 10.5953C17.8696 10.6458 17.8541 10.7057 17.8603 10.7653C17.7455 10.859 17.5844 10.7487 17.491 10.6291C17.3964 10.5105 17.2894 10.3638 17.1464 10.3804C17.0784 10.4005 17.0125 10.4259 16.9493 10.4564C16.7241 10.523 16.5338 10.2785 16.4076 10.0642C16.1881 9.68868 15.9685 9.31349 15.7489 8.93865C15.3086 9.17479 14.7883 8.92721 14.3514 8.68275C13.9144 8.43829 13.3942 8.18967 12.9528 8.42581C12.3052 8.77117 12.2816 9.92274 11.6104 10.2067C11.3942 10.2983 11.1431 10.2785 10.9426 10.4044C10.7444 10.5292 10.6375 10.7695 10.5485 10.9994C10.5156 11.1303 10.4383 11.248 10.3278 11.3354C10.2576 11.3693 10.1795 11.3868 10.1003 11.3864C9.90132 11.4176 9.69674 11.3911 9.51475 11.3104C9.41934 11.255 9.34726 11.1713 9.3104 11.0729C9.27354 10.9745 9.27412 10.8675 9.31204 10.7695C9.31738 10.7591 9.3234 10.749 9.33006 10.7393C9.4022 10.6588 9.46698 10.5728 9.52375 10.4824C9.59131 10.317 9.49447 10.1245 9.51588 9.94562C9.55078 9.63978 9.901 9.47855 9.96068 9.17791C9.98545 9.06036 9.95955 8.9345 9.9832 8.81591C9.98651 8.80037 9.99103 8.78507 9.99672 8.77014L9.79064 8.90121C10.0215 8.65258 10.1375 8.30723 10.3064 8.00555C10.494 7.67525 10.7523 7.38353 11.0654 7.14805C11.3786 6.91257 11.7402 6.73822 12.1284 6.63553C12.8627 6.43789 13.6385 6.49198 14.3795 6.65946C15.0841 6.82162 15.7591 7.07853 16.3829 7.42196C16.6057 7.53235 16.8037 7.68099 16.9662 7.85991C17.1024 8.04542 17.2182 8.243 17.3119 8.44973C17.5304 8.86791 18.1272 9.25488 17.652 9.31314C17.2567 9.36203 17.6171 9.61794 17.8243 9.79062C17.871 9.82447 17.9114 9.86525 17.9437 9.91128C17.9781 9.97707 17.9938 10.0499 17.9895 10.1228C17.9852 10.1958 17.9608 10.2665 17.9189 10.3284C17.8389 10.4221 18.1632 10.4408 18.0529 10.4865Z" fill="black"/>
<path d="M18.0529 10.3825C17.9916 10.4024 17.9394 10.4407 17.9045 10.4912C17.8696 10.5418 17.854 10.6016 17.8603 10.6613C17.7454 10.7549 17.5844 10.6447 17.4909 10.525C17.3964 10.4064 17.2894 10.2598 17.1464 10.2764C17.0784 10.2964 17.0125 10.3218 16.9493 10.3524C16.7241 10.4189 16.5337 10.1745 16.4076 9.96018C16.188 9.58465 15.9684 9.20947 15.7489 8.83462C15.3085 9.07076 14.7883 8.82318 14.3514 8.57872C13.9144 8.33426 13.3942 8.08564 12.9527 8.32178C12.3052 8.66715 12.2816 9.8187 11.6104 10.1027C11.3942 10.1942 11.1431 10.1745 10.9426 10.3003C10.7444 10.4252 10.6375 10.6655 10.5485 10.8954C10.5156 11.0262 10.4382 11.144 10.3278 11.2314C10.2576 11.2653 10.1795 11.2828 10.1003 11.2823C9.90131 11.3136 9.69672 11.287 9.51473 11.2064C9.41933 11.151 9.34724 11.0672 9.31038 10.9689C9.27353 10.8705 9.27411 10.7635 9.31203 10.6655C9.31737 10.6551 9.32339 10.645 9.33005 10.6353C9.40218 10.5547 9.46697 10.4688 9.52374 10.3784C9.5913 10.213 9.49446 10.0205 9.51586 9.84159C9.55076 9.53576 9.90098 9.37451 9.96067 9.07388C9.98544 8.95633 9.95954 8.83046 9.98318 8.71187C9.9865 8.69634 9.99102 8.68104 9.99671 8.6661L9.79063 8.79718C10.0215 8.54856 10.1375 8.20319 10.3064 7.90152C10.494 7.57122 10.7522 7.2795 11.0654 7.04402C11.3786 6.80854 11.7402 6.63419 12.1284 6.5315C12.8626 6.33386 13.6385 6.38794 14.3795 6.55543C15.0841 6.71758 15.7591 6.9745 16.3829 7.31793C16.6057 7.42832 16.8037 7.57696 16.9662 7.75588C17.1023 7.94139 17.2181 8.13897 17.3119 8.3457C17.5303 8.76388 18.1272 9.15086 17.652 9.20911C17.2567 9.258 17.6171 9.51391 17.8243 9.68659C17.871 9.72044 17.9113 9.76122 17.9436 9.80725C17.978 9.87305 17.9938 9.94582 17.9895 10.0188C17.9851 10.0917 17.9608 10.1625 17.9188 10.2244C17.8389 10.318 18.1632 10.3367 18.0529 10.3825Z" fill="#865A61"/>
<path opacity="0.1" d="M17.8243 9.68659L17.7792 10.1245C17.7792 10.1245 13.0541 4.59248 9.37849 10.8392C9.37849 10.8392 9.36046 10.7633 9.33006 10.6353C9.4022 10.5547 9.46698 10.4688 9.52375 10.3784C9.59131 10.213 9.49447 10.0205 9.51587 9.84159C9.55078 9.53576 9.90099 9.37451 9.96068 9.07388C9.98545 8.95633 9.95955 8.83046 9.9832 8.71187C9.98651 8.69634 9.99103 8.68104 9.99672 8.6661L9.79064 8.79718C10.0215 8.54856 10.1375 8.20319 10.3064 7.90152C10.494 7.57122 10.7523 7.2795 11.0654 7.04402C11.3786 6.80854 11.7402 6.63419 12.1284 6.5315C12.8627 6.33386 13.6385 6.38794 14.3795 6.55543C15.0841 6.71758 15.7591 6.9745 16.3829 7.31793C16.6057 7.42832 16.8037 7.57696 16.9662 7.75588C17.1023 7.94139 17.2182 8.13897 17.3119 8.3457C17.5304 8.76388 18.1272 9.15086 17.652 9.20911C17.2567 9.25801 17.6171 9.51391 17.8243 9.68659Z" fill="black"/>
<g opacity="0.1">
<path d="M17.9408 10.3259C17.9175 10.3501 17.9005 10.3789 17.8912 10.4101C17.8819 10.4414 17.8806 10.4741 17.8872 10.5059C17.7723 10.5996 17.6113 10.4893 17.5179 10.3697C17.4233 10.2511 17.3163 10.1044 17.1733 10.121C17.1053 10.1411 17.0394 10.1665 16.9762 10.197C16.751 10.2636 16.5607 10.0191 16.4345 9.80481C16.2149 9.42928 15.9954 9.0541 15.7758 8.67926C15.3355 8.9154 14.8152 8.66782 14.3783 8.42335C13.9413 8.17889 13.4211 7.93028 12.9797 8.16641C12.3321 8.51178 12.3085 9.66334 11.6373 9.94732C11.4211 10.0389 11.17 10.0191 10.9695 10.145C10.7713 10.2698 10.6644 10.5101 10.5754 10.74C10.5425 10.8709 10.4651 10.9886 10.3547 11.076C10.2845 11.1099 10.2064 11.1274 10.1272 11.127C9.92822 11.1582 9.72363 11.1317 9.54164 11.051C9.43257 10.9842 9.35434 10.8823 9.32219 10.7651C9.29983 10.8583 9.30887 10.9555 9.3481 11.0438C9.38733 11.1322 9.45486 11.2073 9.54164 11.2591C9.72363 11.3397 9.92822 11.3663 10.1272 11.335C10.2064 11.3354 10.2845 11.3179 10.3547 11.284C10.4651 11.1966 10.5425 11.0789 10.5754 10.948C10.6644 10.7181 10.7713 10.4778 10.9695 10.353C11.17 10.2272 11.4211 10.2469 11.6373 10.1554C12.3085 9.87139 12.3321 8.71983 12.9797 8.37446C13.4211 8.13832 13.9413 8.38695 14.3783 8.6314C14.8152 8.87586 15.3355 9.12345 15.7758 8.88731C15.9953 9.2618 16.2149 9.63698 16.4345 10.0129C16.5607 10.2272 16.751 10.4716 16.9762 10.405C17.0394 10.3745 17.1053 10.3491 17.1733 10.3291C17.3163 10.3125 17.4233 10.4591 17.5179 10.5777C17.6113 10.6973 17.7723 10.8076 17.8872 10.714C17.8809 10.6543 17.8965 10.5944 17.9314 10.5439C17.9663 10.4934 18.0186 10.4551 18.0798 10.4352C18.1676 10.3988 17.9808 10.3794 17.9408 10.3259Z" fill="black"/>
<path d="M17.5726 9.28658C17.6066 9.27393 17.6424 9.26559 17.6789 9.26179C17.8884 9.23611 17.8893 9.14641 17.8063 9.01843C17.7669 9.03809 17.7235 9.0501 17.6789 9.05374C17.4528 9.08171 17.4743 9.17747 17.5726 9.28658Z" fill="black"/>
<path d="M18.0039 10.158C18.0196 10.0909 18.0192 10.0214 18.0028 9.95453C17.9928 9.996 17.9733 10.035 17.9457 10.069C17.9105 10.1103 17.9539 10.137 18.0039 10.158Z" fill="black"/>
<path d="M9.5493 9.85831C9.54691 9.8702 9.54419 9.88195 9.54278 9.89429C9.53819 9.98797 9.54557 10.0818 9.56477 10.1739C9.57805 10.0686 9.57282 9.96205 9.5493 9.85831Z" fill="black"/>
<path d="M10.0065 8.58911C9.95348 8.68185 9.89017 8.76924 9.81755 8.84985L9.99931 8.73425C9.99842 8.68578 10.0008 8.6373 10.0065 8.58911Z" fill="black"/>
</g>
<path d="M9.37825 10.7352C9.37825 10.7352 8.69876 7.92922 8.91496 7.47921C8.91496 7.47921 8.32813 6.36742 8.32813 6.10271C8.29966 5.66098 8.15093 5.23304 7.89573 4.85856C7.58687 4.40855 7.24713 2.31732 9.10027 1.81436C10.9534 1.31141 12.3742 0.861394 12.5904 0.51727C12.8066 0.173147 15.9878 0.384913 16.8526 1.70848C17.7174 3.03204 18.2733 2.76733 18.2733 2.76733C18.2733 2.76733 19.6014 3.535 19.6014 4.22325C19.6014 4.9115 19.1999 5.25563 19.6014 5.41445C20.003 5.57328 19.6941 8.43218 17.9336 8.51159L17.7792 10.0205C17.7792 10.0205 13.0537 4.48796 9.37825 10.7352Z" fill="#ED1D46"/>
<path opacity="0.1" d="M9.58062 2.36115C9.58062 2.36115 9.1724 4.57168 9.91845 5.31286L9.58062 2.36115Z" fill="black"/>
<path opacity="0.1" d="M11.495 1.854C11.495 1.854 10.4533 4.22058 10.7067 4.67568L11.495 1.854Z" fill="black"/>
<path opacity="0.1" d="M12.3959 1.09982C12.3959 1.09982 11.6921 4.18157 12.0299 4.42863L12.3959 1.09982Z" fill="black"/>
<path opacity="0.1" d="M13.6064 1.93204C13.6064 1.93204 12.7337 3.90852 13.0856 4.18158L13.6064 1.93204Z" fill="black"/>
<path opacity="0.1" d="M15.2534 2.16611C15.2534 2.16611 14.2258 3.7785 14.437 4.06457L15.2534 2.16611Z" fill="black"/>
<path opacity="0.1" d="M17.3648 3.73947C17.3648 3.73947 16.2669 4.01254 16.4921 4.33762L17.3648 3.73947Z" fill="black"/>
<path opacity="0.1" d="M18.4065 5.4169C18.4065 5.4169 17.4211 5.85901 17.6041 6.09306L18.4065 5.4169Z" fill="black"/>
<path opacity="0.1" d="M8.91498 7.4792C8.91498 7.4792 15.2085 5.11771 17.9336 8.51158C17.9336 8.51158 14.6259 5.91365 8.91498 7.4792Z" fill="black"/>
<path d="M6.64067 26.8829L7.51762 26.0634L9.99702 28.3274L9.12006 29.147L6.83983 27.0648L6.64067 26.8829Z" fill="#53526B"/>
<path d="M0.887573 21.6294C0.887573 21.6294 4.72577 21.9311 8.29806 25.6454L6.80915 27.0368L0.887573 21.6294Z" fill="#F9DC5C"/>
<path d="M12.4001 28.2707C12.4001 28.2707 8.71099 27.0284 8.34848 26.7314C7.98597 26.4343 5.85356 28.1627 8.4551 30.5122C8.4551 30.5122 11.6363 31.3494 12.4873 30.5122C13.3383 29.675 12.4001 28.2707 12.4001 28.2707Z" fill="#FDC2CC"/>
<defs>
<linearGradient id="paint0_linear_1_105" x1="14.4667" y1="85.1017" x2="14.4667" y2="0" gradientUnits="userSpaceOnUse">
<stop stop-color="#808080" stop-opacity="0.25"/>
<stop offset="0.53514" stop-color="#808080" stop-opacity="0.12"/>
<stop offset="1" stop-color="#808080" stop-opacity="0.1"/>
</linearGradient>
</defs>
</svg>
